<?xml version="1.0" encoding="UTF-8"?>
<!DOCTYPE svg PUBLIC "-//W3C//DTD SVG 1.1//EN"
    "http://www.w3.org/Graphics/SVG/1.1/DTD/svg11.dtd" >
<svg contentScriptType="text/ecmascript" width="1039.0256"
     xmlns:xlink="http://www.w3.org/1999/xlink" zoomAndPan="magnify"
     contentStyleType="text/css"
     viewBox="-795.000000 -324.000000 1039.025635 722.333740" height="722.33374"
     preserveAspectRatio="xMidYMid meet" xmlns="http://www.w3.org/2000/svg"
     version="1.1">
    <g id="edges">
        <path fill="none" stroke-width="31.0"
              d="M 6.718188,22.329325 C -21.628286,17.796970 -57.349468,-31.521275 -52.817112,-59.867748"
              class="#per462 #per93" stroke-opacity="1.0" stroke="#e28bff"/>
        <path fill="none" stroke-width="29.0"
              d="M 28.959740,-108.935219 C 22.417862,-82.766357 -26.648245,-53.325874 -52.817112,-59.867748"
              class="#per463 #per93" stroke-opacity="1.0" stroke="#e28bff"/>
        <path fill="none" stroke-width="15.0"
              d="M 6.718188,22.329325 C -15.086411,-8.371894 -1.741480,-87.130623 28.959740,-108.935219"
              class="#per462 #per463" stroke-opacity="1.0" stroke="#e28bff"/>
        <path fill="none" stroke-width="15.0"
              d="M 9.442125,-41.519215 C 21.667046,-28.204720 20.032684,10.104403 6.718188,22.329325"
              class="#org96 #per462" stroke-opacity="1.0" stroke="#71a9ff"/>
        <path fill="none" stroke-width="11.0"
              d="M 9.442125,-41.519215 C -6.679429,-32.737076 -44.034973,-43.746193 -52.817112,-59.867748"
              class="#org96 #per93" stroke-opacity="1.0" stroke="#71a9ff"/>
        <path fill="none" stroke-width="11.0"
              d="M -55.078152,-162.040878 C -34.191315,-142.058456 -32.834694,-80.754585 -52.817112,-59.867748"
              class="#per464 #per93" stroke-opacity="1.0" stroke="#e28bff"/>
        <path fill="none" stroke-width="8.0"
              d="M 28.959740,-108.935219 C 42.226608,-137.276962 104.639534,-159.889267 132.981277,-146.622406"
              class="#per463 #per466" stroke-opacity="1.0" stroke="#e28bff"/>
        <path fill="none" stroke-width="8.0"
              d="M 6.718188,22.329325 C 33.327362,-23.104305 141.391571,-51.340996 186.825195,-24.731825"
              class="#per462 #per467" stroke-opacity="1.0" stroke="#e28bff"/>
        <path fill="none" stroke-width="8.0"
              d="M 113.849243,93.298363 C 78.229225,100.530762 13.950593,57.949345 6.718188,22.329325"
              class="#org25 #per462" stroke-opacity="1.0" stroke="#71a9ff"/>
        <path fill="none" stroke-width="8.0"
              d="M 28.959740,-108.935219 C 1.531031,-102.748772 -48.891708,-134.612167 -55.078152,-162.040878"
              class="#per463 #per464" stroke-opacity="1.0" stroke="#e28bff"/>
        <path fill="none" stroke-width="8.0"
              d="M -82.286522,127.814888 C -113.929169,84.384483 -96.247520,-28.225105 -52.817112,-59.867748"
              class="#org13 #per93" stroke-opacity="1.0" stroke="#71a9ff"/>
        <path fill="none" stroke-width="7.0"
              d="M -82.286522,127.814888 C -85.582695,88.916832 -32.179867,25.625496 6.718188,22.329325"
              class="#org13 #per462" stroke-opacity="1.0" stroke="#71a9ff"/>
        <path fill="none" stroke-width="7.0"
              d="M 28.959740,-108.935219 C 59.025711,-152.211487 169.039078,-172.026947 212.315353,-141.960968"
              class="#per463 #per465" stroke-opacity="1.0" stroke="#e28bff"/>
        <path fill="none" stroke-width="6.0"
              d="M 28.959740,-108.935219 C 38.660507,-166.397171 139.404572,-238.038940 196.866516,-228.338165"
              class="#per463 #per469" stroke-opacity="1.0" stroke="#e28bff"/>
        <path fill="none" stroke-width="6.0"
              d="M 132.981277,-146.622406 C 129.415176,-175.742615 167.746307,-224.772064 196.866516,-228.338165"
              class="#per466 #per469" stroke-opacity="1.0" stroke="#e28bff"/>
        <path fill="none" stroke-width="6.0"
              d="M -82.286522,127.814888 C -107.387299,58.215607 -40.639542,-83.834450 28.959740,-108.935219"
              class="#org13 #per463" stroke-opacity="1.0" stroke="#71a9ff"/>
        <path fill="none" stroke-width="5.0"
              d="M 212.315353,-141.960968 C 195.516251,-127.026436 147.915817,-129.823303 132.981277,-146.622406"
              class="#per465 #per466" stroke-opacity="1.0" stroke="#e28bff"/>
        <path fill="none" stroke-width="5.0"
              d="M 9.442125,-41.519215 C -0.137553,-58.905937 11.573016,-99.355545 28.959740,-108.935219"
              class="#org96 #per463" stroke-opacity="1.0" stroke="#71a9ff"/>
        <path fill="none" stroke-width="5.0"
              d="M 74.230560,-246.839676 C 92.757278,-210.204620 65.594795,-127.461945 28.959740,-108.935219"
              class="#per272 #per463" stroke-opacity="1.0" stroke="#e28bff"/>
        <path fill="none" stroke-width="5.0"
              d="M 212.315353,-141.960968 C 191.950150,-156.146637 182.680847,-207.972961 196.866516,-228.338165"
              class="#per465 #per469" stroke-opacity="1.0" stroke="#e28bff"/>
        <path fill="none" stroke-width="5.0"
              d="M -82.286522,127.814888 C -49.962673,81.684433 67.718781,60.974514 113.849243,93.298363"
              class="#org13 #org25" stroke-opacity="1.0" stroke="#00c7ff"/>
        <path fill="none" stroke-width="4.0"
              d="M 113.849243,93.298363 C 104.838394,55.097130 148.623978,-15.720978 186.825195,-24.731825"
              class="#org25 #per467" stroke-opacity="1.0" stroke="#71a9ff"/>
        <path fill="none" stroke-width="4.0"
              d="M 6.718188,22.329325 C -1.819538,-36.713638 73.938316,-138.084686 132.981277,-146.622406"
              class="#per462 #per466" stroke-opacity="1.0" stroke="#e28bff"/>
        <path fill="none" stroke-width="4.0"
              d="M 132.981277,-146.622406 C 113.172523,-92.111786 1.693499,-40.059002 -52.817112,-59.867748"
              class="#per466 #per93" stroke-opacity="1.0" stroke="#e28bff"/>
        <path fill="none" stroke-width="4.0"
              d="M 6.718188,22.329325 C 14.979561,-51.648163 138.337860,-150.222336 212.315353,-141.960968"
              class="#per462 #per465" stroke-opacity="1.0" stroke="#e28bff"/>
        <path fill="none" stroke-width="4.0"
              d="M 113.849243,93.298363 C 49.882744,95.998413 -50.117062,4.098751 -52.817112,-59.867748"
              class="#org25 #per93" stroke-opacity="1.0" stroke="#71a9ff"/>
        <path fill="none" stroke-width="3.0"
              d="M 28.959740,-108.935219 C 77.373505,-123.667633 172.092789,-73.145592 186.825195,-24.731825"
              class="#per463 #per467" stroke-opacity="1.0" stroke="#e28bff"/>
        <path fill="none" stroke-width="3.0"
              d="M 113.849243,93.298363 C 56.424622,69.829544 5.490925,-51.510601 28.959740,-108.935219"
              class="#org25 #per463" stroke-opacity="1.0" stroke="#71a9ff"/>
        <path fill="none" stroke-width="3.0"
              d="M 113.849243,93.298363 C 69.691498,41.487801 81.170723,-102.464661 132.981277,-146.622406"
              class="#org25 #per466" stroke-opacity="1.0" stroke="#71a9ff"/>
        <path fill="none" stroke-width="3.0"
              d="M 28.959740,-108.935219 C 59.720978,-106.009476 101.474220,-55.479004 98.548477,-24.717764"
              class="#per463 #per92" stroke-opacity="1.0" stroke="#e28bff"/>
        <path fill="none" stroke-width="3.0"
              d="M 74.230560,-246.839676 C 122.823257,-253.480896 205.674133,-190.553665 212.315353,-141.960968"
              class="#per272 #per465" stroke-opacity="1.0" stroke="#e28bff"/>
        <path fill="none" stroke-width="3.0"
              d="M 74.230560,-246.839676 C 86.215408,-184.035767 9.986803,-71.852600 -52.817112,-59.867748"
              class="#per272 #per93" stroke-opacity="1.0" stroke="#e28bff"/>
        <path fill="none" stroke-width="3.0"
              d="M -82.286522,127.814888 C -94.120422,29.873871 35.040260,-134.788513 132.981277,-146.622406"
              class="#org13 #per466" stroke-opacity="1.0" stroke="#71a9ff"/>
        <path fill="none" stroke-width="3.0"
              d="M -82.286522,127.814888 C -76.626053,61.141357 31.874947,-30.378233 98.548477,-24.717764"
              class="#org13 #per92" stroke-opacity="1.0" stroke="#71a9ff"/>
        <path fill="none" stroke-width="2.0"
              d="M 74.230560,-246.839676 C 114.561890,-179.503403 74.054466,-18.002001 6.718188,22.329325"
              class="#per272 #per462" stroke-opacity="1.0" stroke="#e28bff"/>
        <path fill="none" stroke-width="2.0"
              d="M -322.606995,251.756821 C -301.377167,250.282944 -267.321594,279.916931 -265.847748,301.146759"
              class="#per94 #per95" stroke-opacity="1.0" stroke="#e28bff"/>
        <path fill="none" stroke-width="2.0"
              d="M 74.230560,-246.839676 C 106.024162,-238.546356 141.274582,-178.416016 132.981277,-146.622406"
              class="#per272 #per466" stroke-opacity="1.0" stroke="#e28bff"/>
        <path fill="none" stroke-width="2.0"
              d="M -242.694916,231.284256 C -254.582825,251.361191 -302.530060,263.644714 -322.606995,251.756821"
              class="#per35 #per94" stroke-opacity="1.0" stroke="#e28bff"/>
        <path fill="none" stroke-width="2.0"
              d="M 212.315353,-141.960968 C 230.663147,-113.417107 215.369064,-43.079620 186.825195,-24.731825"
              class="#per465 #per467" stroke-opacity="1.0" stroke="#e28bff"/>
        <path fill="none" stroke-width="2.0"
              d="M 6.718188,22.329325 C -13.261353,134.079865 -210.856445,271.736359 -322.606995,251.756821"
              class="#per462 #per94" stroke-opacity="1.0" stroke="#e28bff"/>
        <path fill="none" stroke-width="2.0"
              d="M -242.694916,231.284256 C -233.352982,249.887329 -247.244690,291.804810 -265.847748,301.146759"
              class="#per35 #per95" stroke-opacity="1.0" stroke="#e28bff"/>
        <path fill="none" stroke-width="2.0"
              d="M 98.548477,-24.717764 C 61.245361,-1.474646 -29.573994,-22.564638 -52.817112,-59.867748"
              class="#per92 #per93" stroke-opacity="1.0" stroke="#e28bff"/>
        <path fill="none" stroke-width="2.0"
              d="M 28.959740,-108.935219 C 30.784805,33.516541 -180.155228,249.931763 -322.606995,251.756821"
              class="#per463 #per94" stroke-opacity="1.0" stroke="#e28bff"/>
        <path fill="none" stroke-width="2.0"
              d="M 132.981277,-146.622406 C 168.128174,-133.013077 200.434525,-59.878723 186.825195,-24.731825"
              class="#per466 #per467" stroke-opacity="1.0" stroke="#e28bff"/>
        <path fill="none" stroke-width="2.0"
              d="M 113.849243,93.298363 C 86.490601,26.553270 145.570267,-114.602325 212.315353,-141.960968"
              class="#org25 #per465" stroke-opacity="1.0" stroke="#71a9ff"/>
        <path fill="none" stroke-width="2.0"
              d="M -82.286522,127.814888 C -58.973518,43.483196 102.493515,-48.044830 186.825195,-24.731825"
              class="#org13 #per467" stroke-opacity="1.0" stroke="#71a9ff"/>
        <path fill="none" stroke-width="2.0"
              d="M 74.230560,-246.839676 C 102.458054,-267.666565 176.039627,-256.565674 196.866516,-228.338165"
              class="#per272 #per469" stroke-opacity="1.0" stroke="#e28bff"/>
        <path fill="none" stroke-width="2.0"
              d="M 186.825195,-24.731825 C 131.869537,16.169453 -11.915834,-4.912102 -52.817112,-59.867748"
              class="#per467 #per93" stroke-opacity="1.0" stroke="#e28bff"/>
        <path fill="none" stroke-width="1.0"
              d="M 28.959740,-108.935219 C 52.014633,32.042679 -124.869850,278.091858 -265.847748,301.146759"
              class="#per463 #per95" stroke-opacity="1.0" stroke="#e28bff"/>
        <path fill="none" stroke-width="1.0"
              d="M 98.049583,228.381714 C 118.024239,224.315475 154.085571,248.178101 158.151810,268.152740"
              class="#org22 #per16" stroke-opacity="1.0" stroke="#71a9ff"/>
        <path fill="none" stroke-width="1.0"
              d="M 198.308105,-314.519623 C 215.256088,-296.994995 214.391129,-245.286148 196.866516,-228.338165"
              class="#org95 #per469" stroke-opacity="1.0" stroke="#71a9ff"/>
        <path fill="none" stroke-width="1.0"
              d="M -378.994202,-43.438103 C -317.044708,-111.959457 -121.338463,-121.817238 -52.817112,-59.867748"
              class="#per6 #per93" stroke-opacity="1.0" stroke="#e28bff"/>
        <path fill="none" stroke-width="1.0"
              d="M 9.442125,-41.519215 C -18.664282,-95.541000 20.208778,-218.733261 74.230560,-246.839676"
              class="#org96 #per272" stroke-opacity="1.0" stroke="#71a9ff"/>
        <path fill="none" stroke-width="1.0"
              d="M -705.120850,225.036194 C -694.929077,252.918518 -721.464783,310.029724 -749.347107,320.221558"
              class="#per468 #per88" stroke-opacity="1.0" stroke="#e28bff"/>
        <path fill="none" stroke-width="1.0"
              d="M -291.752045,-48.644482 C -246.209717,-98.676117 -102.848747,-105.410080 -52.817112,-59.867748"
              class="#org97 #per93" stroke-opacity="1.0" stroke="#71a9ff"/>
        <path fill="none" stroke-width="1.0"
              d="M -82.286522,127.814888 C -84.332382,199.193512 -194.469116,303.192627 -265.847748,301.146759"
              class="#org13 #per95" stroke-opacity="1.0" stroke="#71a9ff"/>
        <path fill="none" stroke-width="1.0"
              d="M 6.718188,22.329325 C -5.385643,-65.833839 108.703354,-216.234329 196.866516,-228.338165"
              class="#per462 #per469" stroke-opacity="1.0" stroke="#e28bff"/>
        <path fill="none" stroke-width="1.0"
              d="M 6.718188,22.329325 C -51.678085,207.768860 -417.431793,398.333740 -602.871338,339.937469"
              class="#per462 #per90" stroke-opacity="1.0" stroke="#e28bff"/>
        <path fill="none" stroke-width="1.0"
              d="M -82.286522,127.814888 C -97.686523,0.753674 69.805298,-212.938171 196.866516,-228.338165"
              class="#org13 #per469" stroke-opacity="1.0" stroke="#71a9ff"/>
        <path fill="none" stroke-width="1.0"
              d="M -705.120850,225.036194 C -685.370728,146.542557 -538.005005,58.427288 -459.511383,78.177429"
              class="#per468 #per7" stroke-opacity="1.0" stroke="#e28bff"/>
        <path fill="none" stroke-width="1.0"
              d="M 113.849243,93.298363 C 141.805786,145.268219 105.785797,265.157806 53.815937,293.114349"
              class="#org25 #per135" stroke-opacity="1.0" stroke="#71a9ff"/>
        <path fill="none" stroke-width="1.0"
              d="M -303.338287,43.638767 C -327.665161,81.781120 -421.369019,102.504318 -459.511383,78.177429"
              class="#org39 #per7" stroke-opacity="1.0" stroke="#71a9ff"/>
        <path fill="none" stroke-width="1.0"
              d="M -378.994202,-43.438103 C -370.774506,-3.011559 -419.084839,69.957764 -459.511383,78.177429"
              class="#per6 #per7" stroke-opacity="1.0" stroke="#e28bff"/>
        <path fill="none" stroke-width="1.0"
              d="M 198.308105,-314.519623 C 187.028595,-276.168121 112.582054,-235.560165 74.230560,-246.839676"
              class="#org95 #per272" stroke-opacity="1.0" stroke="#71a9ff"/>
        <path fill="none" stroke-width="1.0"
              d="M -749.347107,320.221558 C -727.721680,319.163910 -693.697144,350.015564 -692.639465,371.640961"
              class="#per88 #per89" stroke-opacity="1.0" stroke="#e28bff"/>
        <path fill="none" stroke-width="1.0"
              d="M 98.049583,228.381714 C 74.192848,198.205124 83.672638,117.155098 113.849243,93.298363"
              class="#org22 #org25" stroke-opacity="1.0" stroke="#00c7ff"/>
        <path fill="none" stroke-width="1.0"
              d="M 113.849243,93.298363 C 20.479824,166.803940 -229.832703,137.008179 -303.338287,43.638767"
              class="#org25 #org39" stroke-opacity="1.0" stroke="#00c7ff"/>
        <path fill="none" stroke-width="1.0"
              d="M -96.225609,-210.357361 C -57.445984,-188.941147 -31.400888,-98.647369 -52.817112,-59.867748"
              class="#org81 #per93" stroke-opacity="1.0" stroke="#71a9ff"/>
        <path fill="none" stroke-width="1.0"
              d="M 158.151810,268.152740 C 78.700394,249.274780 -12.159771,101.780739 6.718188,22.329325"
              class="#per16 #per462" stroke-opacity="1.0" stroke="#e28bff"/>
        <path fill="none" stroke-width="1.0"
              d="M 186.825195,-24.731825 C 148.112198,-67.461357 154.136978,-189.625168 196.866516,-228.338165"
              class="#per467 #per469" stroke-opacity="1.0" stroke="#e28bff"/>
        <path fill="none" stroke-width="1.0"
              d="M 158.151810,268.152740 C 50.353920,244.742432 -76.227432,47.930141 -52.817112,-59.867748"
              class="#per16 #per93" stroke-opacity="1.0" stroke="#e28bff"/>
        <path fill="none" stroke-width="1.0"
              d="M 113.849243,93.298363 C 37.897896,33.194489 14.126686,-170.888336 74.230560,-246.839676"
              class="#org25 #per272" stroke-opacity="1.0" stroke="#71a9ff"/>
        <path fill="none" stroke-width="1.0"
              d="M 198.308105,-314.519623 C 205.555313,-239.533066 103.946289,-116.182419 28.959740,-108.935219"
              class="#org95 #per463" stroke-opacity="1.0" stroke="#71a9ff"/>
        <path fill="none" stroke-width="1.0"
              d="M 53.815937,293.114349 C -38.107094,243.844543 -102.086922,32.055283 -52.817112,-59.867748"
              class="#per135 #per93" stroke-opacity="1.0" stroke="#e28bff"/>
        <path fill="none" stroke-width="1.0"
              d="M -82.286522,127.814888 C -6.131283,107.794800 138.131714,191.997513 158.151810,268.152740"
              class="#org13 #per16" stroke-opacity="1.0" stroke="#71a9ff"/>
        <path fill="none" stroke-width="1.0"
              d="M -303.338287,43.638767 C -245.588882,-22.634422 -59.555000,-35.420086 6.718188,22.329325"
              class="#org39 #per462" stroke-opacity="1.0" stroke="#71a9ff"/>
        <path fill="none" stroke-width="1.0"
              d="M 74.230560,-246.839676 C 141.171051,-224.937042 208.727844,-91.672325 186.825195,-24.731825"
              class="#per272 #per467" stroke-opacity="1.0" stroke="#e28bff"/>
        <path fill="none" stroke-width="1.0"
              d="M 53.815937,293.114349 C 69.690788,267.254852 132.292313,252.277878 158.151810,268.152740"
              class="#per135 #per16" stroke-opacity="1.0" stroke="#e28bff"/>
        <path fill="none" stroke-width="1.0"
              d="M 132.981277,-146.622406 C 150.475647,-115.354919 129.815964,-42.212135 98.548477,-24.717764"
              class="#per466 #per92" stroke-opacity="1.0" stroke="#e28bff"/>
        <path fill="none" stroke-width="1.0"
              d="M -82.286522,127.814888 C -77.321320,14.939346 99.439819,-146.926178 212.315353,-141.960968"
              class="#org13 #per465" stroke-opacity="1.0" stroke="#71a9ff"/>
        <path fill="none" stroke-width="1.0"
              d="M -55.078152,-162.040878 C -17.948673,-225.689270 133.218124,-265.467651 196.866516,-228.338165"
              class="#per464 #per469" stroke-opacity="1.0" stroke="#e28bff"/>
        <path fill="none" stroke-width="1.0"
              d="M -705.120850,225.036194 C -710.773499,252.638794 -760.656372,285.563751 -788.258972,279.911102"
              class="#per468 #per87" stroke-opacity="1.0" stroke="#e28bff"/>
        <path fill="none" stroke-width="1.0"
              d="M -749.347107,320.221558 C -716.108765,294.869568 -628.223328,306.699127 -602.871338,339.937469"
              class="#per88 #per90" stroke-opacity="1.0" stroke="#e28bff"/>
        <path fill="none" stroke-width="1.0"
              d="M 198.308105,-314.519623 C 235.621292,-282.809357 244.025635,-179.274155 212.315353,-141.960968"
              class="#org95 #per465" stroke-opacity="1.0" stroke="#71a9ff"/>
        <path fill="none" stroke-width="1.0"
              d="M 196.866516,-228.338165 C 180.623871,-144.707352 30.813698,-43.625103 -52.817112,-59.867748"
              class="#per469 #per93" stroke-opacity="1.0" stroke="#e28bff"/>
        <path fill="none" stroke-width="1.0"
              d="M -291.752045,-48.644482 C -308.159180,-30.154774 -360.504486,-27.030945 -378.994202,-43.438103"
              class="#org97 #per6" stroke-opacity="1.0" stroke="#71a9ff"/>
        <path fill="none" stroke-width="1.0"
              d="M 6.718188,22.329325 C 15.674830,-5.446151 70.773003,-33.674404 98.548477,-24.717764"
              class="#per462 #per92" stroke-opacity="1.0" stroke="#e28bff"/>
        <path fill="none" stroke-width="1.0"
              d="M 113.849243,93.298363 C 157.680634,119.408730 184.262161,224.321350 158.151810,268.152740"
              class="#org25 #per16" stroke-opacity="1.0" stroke="#71a9ff"/>
        <path fill="none" stroke-width="1.0"
              d="M -82.286522,127.814888 C -26.105934,111.861031 82.095726,172.201111 98.049583,228.381714"
              class="#org13 #org22" stroke-opacity="1.0" stroke="#00c7ff"/>
        <path fill="none" stroke-width="1.0"
              d="M 113.849243,93.298363 C 4.340422,146.030060 -239.020355,60.864342 -291.752045,-48.644482"
              class="#org25 #org97" stroke-opacity="1.0" stroke="#00c7ff"/>
        <path fill="none" stroke-width="1.0"
              d="M 98.049583,228.381714 C 38.572826,205.437515 -16.226009,81.806084 6.718188,22.329325"
              class="#org22 #per462" stroke-opacity="1.0" stroke="#71a9ff"/>
        <path fill="none" stroke-width="1.0"
              d="M -82.286522,127.814888 C -22.006130,133.654297 59.655334,232.833954 53.815937,293.114349"
              class="#org13 #per135" stroke-opacity="1.0" stroke="#71a9ff"/>
        <path fill="none" stroke-width="1.0"
              d="M -602.871338,339.937469 C -564.454590,266.248474 -396.295990,213.340073 -322.606995,251.756821"
              class="#per90 #per94" stroke-opacity="1.0" stroke="#e28bff"/>
        <path fill="none" stroke-width="1.0"
              d="M 113.849243,93.298363 C -3.847063,204.946289 -347.863464,195.873734 -459.511383,78.177429"
              class="#org25 #per7" stroke-opacity="1.0" stroke="#71a9ff"/>
        <path fill="none" stroke-width="1.0"
              d="M -82.286522,127.814888 C -105.562225,200.667358 -249.754517,275.032532 -322.606995,251.756821"
              class="#org13 #per94" stroke-opacity="1.0" stroke="#71a9ff"/>
        <path fill="none" stroke-width="1.0"
              d="M -82.286522,127.814888 C -93.674332,180.590439 -189.919357,242.672058 -242.694916,231.284256"
              class="#org13 #per35" stroke-opacity="1.0" stroke="#71a9ff"/>
        <path fill="none" stroke-width="1.0"
              d="M -291.752045,-48.644482 C -299.939545,10.271770 -400.595123,86.364914 -459.511383,78.177429"
              class="#org97 #per7" stroke-opacity="1.0" stroke="#71a9ff"/>
        <path fill="none" stroke-width="1.0"
              d="M -692.639465,371.640961 C -681.026550,347.346649 -627.165649,328.324554 -602.871338,339.937469"
              class="#per89 #per90" stroke-opacity="1.0" stroke="#e28bff"/>
        <path fill="none" stroke-width="1.0"
              d="M 9.442125,-41.519215 C 29.928417,-102.182213 151.652359,-162.447266 212.315353,-141.960968"
              class="#org96 #per465" stroke-opacity="1.0" stroke="#71a9ff"/>
        <path fill="none" stroke-width="1.0"
              d="M -52.817112,-59.867748 C -44.450172,56.415154 -206.324097,243.389877 -322.606995,251.756821"
              class="#per93 #per94" stroke-opacity="1.0" stroke="#e28bff"/>
        <path fill="none" stroke-width="1.0"
              d="M 6.718188,22.329325 C -75.358109,126.744865 -355.095856,160.253723 -459.511383,78.177429"
              class="#per462 #per7" stroke-opacity="1.0" stroke="#e28bff"/>
        <path fill="none" stroke-width="1.0"
              d="M -82.286522,127.814888 C -159.471497,134.416107 -285.150818,28.540497 -291.752045,-48.644482"
              class="#org13 #org97" stroke-opacity="1.0" stroke="#00c7ff"/>
        <path fill="none" stroke-width="1.0"
              d="M -82.286522,127.814888 C -175.878647,152.905823 -353.903259,50.154034 -378.994202,-43.438103"
              class="#org13 #per6" stroke-opacity="1.0" stroke="#71a9ff"/>
        <path fill="none" stroke-width="1.0"
              d="M -303.338287,43.638767 C -335.884857,41.354576 -381.278381,-10.891543 -378.994202,-43.438103"
              class="#org39 #per6" stroke-opacity="1.0" stroke="#71a9ff"/>
        <path fill="none" stroke-width="1.0"
              d="M 6.718188,22.329325 C -83.577782,86.318314 -315.005188,46.857864 -378.994202,-43.438103"
              class="#per462 #per6" stroke-opacity="1.0" stroke="#e28bff"/>
        <path fill="none" stroke-width="1.0"
              d="M 113.849243,93.298363 C -12.066738,164.519745 -307.772797,82.477875 -378.994202,-43.438103"
              class="#org25 #per6" stroke-opacity="1.0" stroke="#71a9ff"/>
        <path fill="none" stroke-width="1.0"
              d="M -291.752045,-48.644482 C -217.863235,-94.143768 -38.781097,-51.559486 6.718188,22.329325"
              class="#org97 #per462" stroke-opacity="1.0" stroke="#71a9ff"/>
        <path fill="none" stroke-width="1.0"
              d="M -788.258972,279.911102 C -772.414551,280.190826 -749.067383,304.377075 -749.347107,320.221558"
              class="#per87 #per88" stroke-opacity="1.0" stroke="#e28bff"/>
        <path fill="none" stroke-width="1.0"
              d="M 74.230560,-246.839676 C 65.328575,-204.018173 -12.256649,-153.138901 -55.078152,-162.040878"
              class="#per272 #per464" stroke-opacity="1.0" stroke="#e28bff"/>
        <path fill="none" stroke-width="1.0"
              d="M -303.338287,43.638767 C -319.477661,22.864868 -312.525940,-32.505081 -291.752045,-48.644482"
              class="#org39 #org97" stroke-opacity="1.0" stroke="#00c7ff"/>
        <path fill="none" stroke-width="1.0"
              d="M -459.511383,78.177429 C -405.781586,-30.770458 -161.764999,-113.597565 -52.817112,-59.867748"
              class="#per7 #per93" stroke-opacity="1.0" stroke="#e28bff"/>
        <path fill="none" stroke-width="1.0"
              d="M -82.286522,127.814888 C -143.332092,155.190018 -275.963165,104.684341 -303.338287,43.638767"
              class="#org13 #org39" stroke-opacity="1.0" stroke="#00c7ff"/>
        <path fill="none" stroke-width="1.0"
              d="M -82.286522,127.814888 C -167.658997,193.332367 -393.993896,163.549896 -459.511383,78.177429"
              class="#org13 #per7" stroke-opacity="1.0" stroke="#71a9ff"/>
        <path fill="none" stroke-width="1.0"
              d="M -303.338287,43.638767 C -273.935333,-27.166777 -123.622658,-89.270683 -52.817112,-59.867748"
              class="#org39 #per93" stroke-opacity="1.0" stroke="#71a9ff"/>
        <path fill="none" stroke-width="1.0"
              d="M -242.694916,231.284256 C -256.407898,108.909424 -93.415085,-95.222244 28.959740,-108.935219"
              class="#per35 #per463" stroke-opacity="1.0" stroke="#e28bff"/>
        <path fill="none" stroke-width="1.0"
              d="M -96.225609,-210.357361 C -78.332825,-208.923553 -53.644348,-179.933670 -55.078152,-162.040878"
              class="#org81 #per464" stroke-opacity="1.0" stroke="#71a9ff"/>
        <path fill="none" stroke-width="1.0"
              d="M -82.286522,127.814888 C -125.914017,21.580553 -32.003777,-203.212173 74.230560,-246.839676"
              class="#org13 #per272" stroke-opacity="1.0" stroke="#71a9ff"/>
        <path fill="none" stroke-width="1.0"
              d="M -96.225609,-210.357361 C -50.904106,-215.110016 24.207098,-154.256714 28.959740,-108.935219"
              class="#org81 #per463" stroke-opacity="1.0" stroke="#71a9ff"/>
        <path fill="none" stroke-width="1.0"
              d="M -82.286522,127.814888 C -134.816010,64.402061 -118.490982,-109.511398 -55.078152,-162.040878"
              class="#org13 #per464" stroke-opacity="1.0" stroke="#71a9ff"/>
        <path fill="none" stroke-width="1.0"
              d="M 198.308105,-314.519623 C 218.822174,-267.874817 179.626099,-167.136475 132.981277,-146.622406"
              class="#org95 #per466" stroke-opacity="1.0" stroke="#71a9ff"/>
        <path fill="none" stroke-width="1.0"
              d="M -55.078152,-162.040878 C -14.382568,-196.569077 98.453079,-187.317993 132.981277,-146.622406"
              class="#per464 #per466" stroke-opacity="1.0" stroke="#e28bff"/>
        <path fill="none" stroke-width="1.0"
              d="M 98.049583,228.381714 C 102.149376,250.174973 75.609192,289.014557 53.815937,293.114349"
              class="#org22 #per135" stroke-opacity="1.0" stroke="#71a9ff"/>
        <path fill="none" stroke-width="1.0"
              d="M 53.815937,293.114349 C -9.760624,248.376892 -38.019272,85.905884 6.718188,22.329325"
              class="#per135 #per462" stroke-opacity="1.0" stroke="#e28bff"/>
        <path fill="none" stroke-width="1.0"
              d="M 98.049583,228.381714 C 10.226353,200.905167 -80.293663,27.955484 -52.817112,-59.867748"
              class="#org22 #per93" stroke-opacity="1.0" stroke="#71a9ff"/>
        <path fill="none" stroke-width="1.0"
              d="M 113.849243,93.298363 C 66.125397,12.367607 115.935760,-180.614319 196.866516,-228.338165"
              class="#org25 #per469" stroke-opacity="1.0" stroke="#71a9ff"/>
    </g>
    <g id="nodes">
        <circle fill-opacity="1.0" fill="#e28bff" r="9.166667" cx="-378.9942"
                class="#per6" cy="-43.438103" stroke="#000000"
                stroke-opacity="1.0" stroke-width="1.0"/>
        <circle fill-opacity="1.0" fill="#e28bff" r="9.518518" cx="-459.51138"
                class="#per7" cy="78.17743" stroke="#000000"
                stroke-opacity="1.0" stroke-width="1.0"/>
        <circle fill-opacity="1.0" fill="#e28bff" r="9.518518" cx="158.15181"
                class="#per16" cy="268.15274" stroke="#000000"
                stroke-opacity="1.0" stroke-width="1.0"/>
        <circle fill-opacity="1.0" fill="#e28bff" r="7.4074073" cx="-242.69492"
                class="#per35" cy="231.28426" stroke="#000000"
                stroke-opacity="1.0" stroke-width="1.0"/>
        <circle fill-opacity="1.0" fill="#e28bff" r="6.703704" cx="-788.259"
                class="#per87" cy="279.9111" stroke="#000000"
                stroke-opacity="1.0" stroke-width="1.0"/>
        <circle fill-opacity="1.0" fill="#e28bff" r="7.4074073" cx="-749.3471"
                class="#per88" cy="320.22156" stroke="#000000"
                stroke-opacity="1.0" stroke-width="1.0"/>
        <circle fill-opacity="1.0" fill="#e28bff" r="6.703704" cx="-692.63947"
                class="#per89" cy="371.64096" stroke="#000000"
                stroke-opacity="1.0" stroke-width="1.0"/>
        <circle fill-opacity="1.0" fill="#e28bff" r="7.4074073" cx="-602.87134"
                class="#per90" cy="339.93747" stroke="#000000"
                stroke-opacity="1.0" stroke-width="1.0"/>
        <circle fill-opacity="1.0" fill="#e28bff" r="8.814815" cx="98.54848"
                class="#per92" cy="-24.717764" stroke="#000000"
                stroke-opacity="1.0" stroke-width="1.0"/>
        <circle fill-opacity="1.0" fill="#e28bff" r="15.5" cx="-52.817112"
                class="#per93" cy="-59.86775" stroke="#000000"
                stroke-opacity="1.0" stroke-width="1.0"/>
        <circle fill-opacity="1.0" fill="#e28bff" r="8.814815" cx="-322.607"
                class="#per94" cy="251.75682" stroke="#000000"
                stroke-opacity="1.0" stroke-width="1.0"/>
        <circle fill-opacity="1.0" fill="#e28bff" r="7.4074073" cx="-265.84775"
                class="#per95" cy="301.14676" stroke="#000000"
                stroke-opacity="1.0" stroke-width="1.0"/>
        <circle fill-opacity="1.0" fill="#e28bff" r="9.518518" cx="53.815937"
                class="#per135" cy="293.11435" stroke="#000000"
                stroke-opacity="1.0" stroke-width="1.0"/>
        <circle fill-opacity="1.0" fill="#e28bff" r="11.981482" cx="74.23056"
                class="#per272" cy="-246.83968" stroke="#000000"
                stroke-opacity="1.0" stroke-width="1.0"/>
        <circle fill-opacity="1.0" fill="#e28bff" r="15.5" cx="6.7181883"
                class="#per462" cy="22.329325" stroke="#000000"
                stroke-opacity="1.0" stroke-width="1.0"/>
        <circle fill-opacity="1.0" fill="#e28bff" r="14.444445" cx="28.95974"
                class="#per463" cy="-108.93522" stroke="#000000"
                stroke-opacity="1.0" stroke-width="1.0"/>
        <circle fill-opacity="1.0" fill="#e28bff" r="9.870371" cx="-55.07815"
                class="#per464" cy="-162.04088" stroke="#000000"
                stroke-opacity="1.0" stroke-width="1.0"/>
        <circle fill-opacity="1.0" fill="#e28bff" r="10.925926" cx="212.31535"
                class="#per465" cy="-141.96097" stroke="#000000"
                stroke-opacity="1.0" stroke-width="1.0"/>
        <circle fill-opacity="1.0" fill="#e28bff" r="11.981482" cx="132.98128"
                class="#per466" cy="-146.6224" stroke="#000000"
                stroke-opacity="1.0" stroke-width="1.0"/>
        <circle fill-opacity="1.0" fill="#e28bff" r="9.870371" cx="186.8252"
                class="#per467" cy="-24.731825" stroke="#000000"
                stroke-opacity="1.0" stroke-width="1.0"/>
        <circle fill-opacity="1.0" fill="#e28bff" r="7.0555553" cx="-705.12085"
                class="#per468" cy="225.0362" stroke="#000000"
                stroke-opacity="1.0" stroke-width="1.0"/>
        <circle fill-opacity="1.0" fill="#e28bff" r="11.629629" cx="196.86652"
                class="#per469" cy="-228.33817" stroke="#000000"
                stroke-opacity="1.0" stroke-width="1.0"/>
        <circle fill-opacity="1.0" fill="#00c7ff" r="15.5" cx="-82.28652"
                class="#org13" cy="127.81489" stroke="#000000"
                stroke-opacity="1.0" stroke-width="1.0"/>
        <circle fill-opacity="1.0" fill="#00c7ff" r="9.518518" cx="98.04958"
                class="#org22" cy="228.38171" stroke="#000000"
                stroke-opacity="1.0" stroke-width="1.0"/>
        <circle fill-opacity="1.0" fill="#00c7ff" r="13.740741" cx="113.84924"
                class="#org25" cy="93.29836" stroke="#000000"
                stroke-opacity="1.0" stroke-width="1.0"/>
        <circle fill-opacity="1.0" fill="#00c7ff" r="9.166667" cx="-303.3383"
                class="#org39" cy="43.638767" stroke="#000000"
                stroke-opacity="1.0" stroke-width="1.0"/>
        <circle fill-opacity="1.0" fill="#00c7ff" r="7.0555553" cx="-96.22561"
                class="#org81" cy="-210.35736" stroke="#000000"
                stroke-opacity="1.0" stroke-width="1.0"/>
        <circle fill-opacity="1.0" fill="#00c7ff" r="9.166667" cx="198.3081"
                class="#org95" cy="-314.51962" stroke="#000000"
                stroke-opacity="1.0" stroke-width="1.0"/>
        <circle fill-opacity="1.0" fill="#00c7ff" r="8.814815" cx="9.442125"
                class="#org96" cy="-41.519215" stroke="#000000"
                stroke-opacity="1.0" stroke-width="1.0"/>
        <circle fill-opacity="1.0" fill="#00c7ff" r="9.166667" cx="-291.75204"
                class="#org97" cy="-48.64448" stroke="#000000"
                stroke-opacity="1.0" stroke-width="1.0"/>
    </g>
    <g id="node-labels">
        <text font-size="22" x="-378.9942" y="-39.348907" fill="#000000"
              style="text-anchor: middle; dominant-baseline: central;"
              font-family="Dialog" class="#per6">
            Tamar
        </text>
        <text font-size="24" x="-459.51138" y="82.63837" fill="#000000"
              style="text-anchor: middle; dominant-baseline: central;"
              font-family="Dialog" class="#per7">
            Fares
        </text>
        <text font-size="24" x="158.15181" y="273.95938" fill="#000000"
              style="text-anchor: middle; dominant-baseline: central;"
              font-family="Dialog" class="#per16">
            Raquel
        </text>
        <text font-size="13" x="-242.69492" y="233.80005" fill="#000000"
              style="text-anchor: middle; dominant-baseline: central;"
              font-family="Dialog" class="#per35">
            David
        </text>
        <text font-size="10" x="-788.259" y="281.76984" fill="#000000"
              style="text-anchor: middle; dominant-baseline: central;"
              font-family="Dialog" class="#per87">
            Aram
        </text>
        <text font-size="13" x="-749.3471" y="322.73734" fill="#000000"
              style="text-anchor: middle; dominant-baseline: central;"
              font-family="Dialog" class="#per88">
            Aminadab
        </text>
        <text font-size="10" x="-692.63947" y="374.1605" fill="#000000"
              style="text-anchor: middle; dominant-baseline: central;"
              font-family="Dialog" class="#per89">
            Najsón
        </text>
        <text font-size="13" x="-602.87134" y="342.58337" fill="#000000"
              style="text-anchor: middle; dominant-baseline: central;"
              font-family="Dialog" class="#per90">
            Salmón
        </text>
        <text font-size="20" x="98.54848" y="-21.000317" fill="#000000"
              style="text-anchor: middle; dominant-baseline: central;"
              font-family="Dialog" class="#per92">
            Boaz
        </text>
        <text font-size="74" x="-52.817112" y="-46.11319" fill="#000000"
              style="text-anchor: middle; dominant-baseline: central;"
              font-family="Dialog" class="#per93">
            Rut
        </text>
        <text font-size="20" x="-322.607" y="255.62726" fill="#000000"
              style="text-anchor: middle; dominant-baseline: central;"
              font-family="Dialog" class="#per94">
            Obed
        </text>
        <text font-size="13" x="-265.84775" y="303.79266" fill="#000000"
              style="text-anchor: middle; dominant-baseline: central;"
              font-family="Dialog" class="#per95">
            Isaí
        </text>
        <text font-size="24" x="53.815937" y="297.5753" fill="#000000"
              style="text-anchor: middle; dominant-baseline: central;"
              font-family="Dialog" class="#per135">
            Lea
        </text>
        <text font-size="42" x="74.23056" y="-238.71175" fill="#000000"
              style="text-anchor: middle; dominant-baseline: central;"
              font-family="Dialog" class="#per272">
            Moab
        </text>
        <text font-size="74" x="6.7181883" y="36.08388" fill="#000000"
              style="text-anchor: middle; dominant-baseline: central;"
              font-family="Dialog" class="#per462">
            Booz
        </text>
        <text font-size="64" x="28.95974" y="-95.90918" fill="#000000"
              style="text-anchor: middle; dominant-baseline: central;"
              font-family="Dialog" class="#per463">
            Noemí
        </text>
        <text font-size="26" x="-55.07815" y="-157.00931" fill="#000000"
              style="text-anchor: middle; dominant-baseline: central;"
              font-family="Dialog" class="#per464">
            Orfa
        </text>
        <text font-size="34" x="212.31535" y="-135.38121" fill="#000000"
              style="text-anchor: middle; dominant-baseline: central;"
              font-family="Dialog" class="#per465">
            Elimelec
        </text>
        <text font-size="42" x="132.98128" y="-138.07407" fill="#000000"
              style="text-anchor: middle; dominant-baseline: central;"
              font-family="Dialog" class="#per466">
            Mahlón
        </text>
        <text font-size="26" x="186.8252" y="-18.441298" fill="#000000"
              style="text-anchor: middle; dominant-baseline: central;"
              font-family="Dialog" class="#per467">
            pariente de Rut y Boaz
        </text>
        <text font-size="11" x="-705.12085" y="227.27504" fill="#000000"
              style="text-anchor: middle; dominant-baseline: central;"
              font-family="Dialog" class="#per468">
            Hezrón
        </text>
        <text font-size="39" x="196.86652" y="-219.28323" fill="#000000"
              style="text-anchor: middle; dominant-baseline: central;"
              font-family="Dialog" class="#per469">
            Quelión
        </text>
        <text font-size="74" x="-82.28652" y="146.45941" fill="#000000"
              style="text-anchor: middle; dominant-baseline: central;"
              font-family="Dialog" class="#org13">
            judíos
        </text>
        <text font-size="24" x="98.04958" y="233.02625" fill="#000000"
              style="text-anchor: middle; dominant-baseline: central;"
              font-family="Dialog" class="#org22">
            tribus de Israel
        </text>
        <text font-size="57" x="113.84924" y="104.329124" fill="#000000"
              style="text-anchor: middle; dominant-baseline: central;"
              font-family="Dialog" class="#org25">
            ancianos
        </text>
        <text font-size="22" x="-303.3383" y="49.138767" fill="#000000"
              style="text-anchor: middle; dominant-baseline: central;"
              font-family="Dialog" class="#org39">
            tribu de Judá
        </text>
        <text font-size="11" x="-96.22561" y="-208.22862" fill="#000000"
              style="text-anchor: middle; dominant-baseline: central;"
              font-family="Dialog" class="#org81">
            moabitas
        </text>
        <text font-size="22" x="198.3081" y="-309.19687" fill="#000000"
              style="text-anchor: middle; dominant-baseline: central;"
              font-family="Dialog" class="#org95">
            jueces
        </text>
        <text font-size="20" x="9.442125" y="-37.648773" fill="#000000"
              style="text-anchor: middle; dominant-baseline: central;"
              font-family="Dialog" class="#org96">
            criados de Booz
        </text>
        <text font-size="22" x="-291.75204" y="-43.321728" fill="#000000"
              style="text-anchor: middle; dominant-baseline: central;"
              font-family="Dialog" class="#org97">
            hijos de Booz y Rut
        </text>
    </g>
</svg>